<svg xmlns="http://www.w3.org/2000/svg" width="600" height="600" viewBox="0 0 200 200" style="overflow:hidden!important"><defs id="SvgjsDefs7768"><radialGradient id="SvgjsRadialGradient7834" cx="100" cy="114" r="41" gradientUnits="userSpaceOnUse" class="svga-on-canvas-facehighlight-gradient-single-0"><stop id="SvgjsStop7835" stop-opacity=".5" stop-color="#ffe4d6" offset="0"/><stop id="SvgjsStop7836" stop-opacity="0" stop-color="#f0c7b1" offset=".9"/></radialGradient><radialGradient id="SvgjsRadialGradient7838" cx="100" cy="54" r="37" gradientUnits="userSpaceOnUse" class="svga-on-canvas-facehighlight-gradient-single-1"><stop id="SvgjsStop7839" stop-opacity=".5" stop-color="#ffe4d6" offset="0"/><stop id="SvgjsStop7840" stop-opacity="0" stop-color="#f0c7b1" offset=".9"/></radialGradient><radialGradient id="SvgjsRadialGradient7868" cx="129.041" cy="83.945" r="15.117" gradientTransform="matrix(-0.9945 0.1042 0.1042 0.9945 192.8281 -12.4633)" gradientUnits="userSpaceOnUse" class="svga-on-canvas-eyesback-gradient-left-0"><stop id="SvgjsStop7869" stop-opacity="1" stop-color="#fff" offset="0"/><stop id="SvgjsStop7870" stop-opacity="1" stop-color="#fcfdfd" offset=".315"/><stop id="SvgjsStop7871" stop-opacity="1" stop-color="#f4f7f8" offset=".504"/><stop id="SvgjsStop7872" stop-opacity="1" stop-color="#e5ecef" offset=".66"/><stop id="SvgjsStop7873" stop-opacity="1" stop-color="#d8e2e7" offset=".76"/></radialGradient><radialGradient id="SvgjsRadialGradient7875" cx="128.643" cy="83.986" r="15.116" gradientTransform="matrix(0.9945 0.1042 -0.1042 0.9945 7.1738 -12.4633)" gradientUnits="userSpaceOnUse" class="svga-on-canvas-eyesback-gradient-right-0"><stop id="SvgjsStop7876" stop-opacity="1" stop-color="#fff" offset="0"/><stop id="SvgjsStop7877" stop-opacity="1" stop-color="#fcfdfd" offset=".316"/><stop id="SvgjsStop7878" stop-opacity="1" stop-color="#f4f7f8" offset=".505"/><stop id="SvgjsStop7879" stop-opacity="1" stop-color="#e5ecef" offset=".661"/><stop id="SvgjsStop7880" stop-opacity="1" stop-color="#d8e2e7" offset=".76"/></radialGradient><radialGradient id="SvgjsRadialGradient7882" cx="129.041" cy="83.945" r="15.117" gradientTransform="matrix(-0.9945 0.1042 0.1042 0.9945 192.8281 -12.4633)" gradientUnits="userSpaceOnUse" class="svga-on-canvas-eyesfront-gradient-left-0"><stop id="SvgjsStop7883" stop-opacity="1" stop-color="#fff" offset="0"/><stop id="SvgjsStop7884" stop-opacity="1" stop-color="#fcfdfd" offset=".316"/><stop id="SvgjsStop7885" stop-opacity="1" stop-color="#f4f7f8" offset=".505"/><stop id="SvgjsStop7886" stop-opacity="1" stop-color="#e5ecef" offset=".661"/><stop id="SvgjsStop7887" stop-opacity="1" stop-color="#d8e2e7" offset=".76"/></radialGradient><radialGradient id="SvgjsRadialGradient7891" cx="121.986" cy="82.496" fx="133.239" fy="82.527" r="16.003" gradientTransform="matrix(0.9998 0.0208 0.0166 -0.7998 -45.3195 145.9395)" gradientUnits="userSpaceOnUse" class="svga-on-canvas-eyesfront-gradient-left-3"><stop id="SvgjsStop7892" stop-opacity="1" stop-color="#e1ac8f" offset="0"/><stop id="SvgjsStop7893" stop-opacity=".3" stop-color="#e1ac8f" offset=".7"/><stop id="SvgjsStop7894" stop-opacity="0" stop-color="#f0c7b1" offset="1"/></radialGradient><radialGradient id="SvgjsRadialGradient7896" cx="68.931" cy="105.995" r="29.524" gradientTransform="matrix(1.0336 0 0 1.0336 -1.6796 1.3127)" gradientUnits="userSpaceOnUse" class="svga-on-canvas-eyesfront-gradient-left-4"><stop id="SvgjsStop7897" stop-opacity="0" stop-color="#000" offset=".95"/><stop id="SvgjsStop7898" stop-opacity=".2" stop-color="#000" offset="1"/></radialGradient><radialGradient id="SvgjsRadialGradient7902" cx="128.643" cy="83.986" r="15.116" gradientTransform="matrix(0.9945 0.1042 -0.1042 0.9945 7.1738 -12.4633)" gradientUnits="userSpaceOnUse" class="svga-on-canvas-eyesfront-gradient-right-0"><stop id="SvgjsStop7903" stop-opacity="1" stop-color="#fff" offset="0"/><stop id="SvgjsStop7904" stop-opacity="1" stop-color="#fcfdfd" offset=".316"/><stop id="SvgjsStop7905" stop-opacity="1" stop-color="#f4f7f8" offset=".505"/><stop id="SvgjsStop7906" stop-opacity="1" stop-color="#e5ecef" offset=".661"/><stop id="SvgjsStop7907" stop-opacity="1" stop-color="#d8e2e7" offset=".76"/></radialGradient><radialGradient id="SvgjsRadialGradient7911" cx="121.587" cy="82.496" fx="132.839" fy="82.527" r="16.003" gradientTransform="matrix(-0.9998 0.0208 -0.0166 -0.7998 244.5208 145.9478)" gradientUnits="userSpaceOnUse" class="svga-on-canvas-eyesfront-gradient-right-3"><stop id="SvgjsStop7912" stop-opacity="1" stop-color="#e1ac8f" offset="0"/><stop id="SvgjsStop7913" stop-opacity=".3" stop-color="#e1ac8f" offset=".7"/><stop id="SvgjsStop7914" stop-opacity="0" stop-color="#f0c7b1" offset="1"/></radialGradient><radialGradient id="SvgjsRadialGradient7916" cx="69.316" cy="105.995" r="29.524" gradientTransform="matrix(-1.0336 0 0 1.0336 201.6796 1.3127)" gradientUnits="userSpaceOnUse" class="svga-on-canvas-eyesfront-gradient-right-4"><stop id="SvgjsStop7917" stop-opacity="0" stop-color="#000" offset=".95"/><stop id="SvgjsStop7918" stop-opacity=".2" stop-color="#000" offset="1"/></radialGradient><radialGradient id="SvgjsRadialGradient7927" cx="-582.838" cy="-519.099" r="59.745" gradientTransform="matrix(0.0991 8.856319e-004 -0.0011 0.0991 131.1134 135.9855)" gradientUnits="userSpaceOnUse" class="svga-on-canvas-eyesiris-gradient-left-2"><stop id="SvgjsStop7928" stop-opacity="1" stop-color="#fff" offset="0"/><stop id="SvgjsStop7929" stop-opacity="0" stop-color="#fff" offset="1"/></radialGradient><linearGradient id="SvgjsLinearGradient7933" x1="122.67" y1="88.268" x2="123.606" y2="87.152" gradientTransform="matrix(1 0 0 1 -52 0)" gradientUnits="userSpaceOnUse" class="svga-on-canvas-eyesiris-gradient-left-5"><stop id="SvgjsStop7934" stop-opacity="1" stop-color="#fff" offset="0"/><stop id="SvgjsStop7935" stop-opacity="0" stop-color="#fff" offset="1"/></linearGradient><linearGradient id="SvgjsLinearGradient7941" x1="129.636" y1="79.822" x2="127.91" y2="81.879" gradientTransform="matrix(1 0 0 1 -52 0)" gradientUnits="userSpaceOnUse" class="svga-on-canvas-eyesiris-gradient-left-7"><stop id="SvgjsStop7942" stop-opacity="1" stop-color="#fff" offset="0"/><stop id="SvgjsStop7943" stop-opacity="0" stop-color="#fff" offset="1"/></linearGradient><radialGradient id="SvgjsRadialGradient7950" cx="-582.833" cy="-519.102" r="59.747" gradientTransform="matrix(0.0991 8.856319e-004 -0.0011 0.0991 183.1126 135.9856)" gradientUnits="userSpaceOnUse" class="svga-on-canvas-eyesiris-gradient-right-2"><stop id="SvgjsStop7951" stop-opacity="1" stop-color="#fff" offset="0"/><stop id="SvgjsStop7952" stop-opacity="0" stop-color="#fff" offset="1"/></radialGradient><linearGradient id="SvgjsLinearGradient7956" x1="122.67" y1="88.268" x2="123.606" y2="87.152" gradientUnits="userSpaceOnUse" class="svga-on-canvas-eyesiris-gradient-right-5"><stop id="SvgjsStop7957" stop-opacity="1" stop-color="#fff" offset="0"/><stop id="SvgjsStop7958" stop-opacity="0" stop-color="#fff" offset="1"/></linearGradient><linearGradient id="SvgjsLinearGradient7964" x1="129.636" y1="79.822" x2="127.91" y2="81.879" gradientUnits="userSpaceOnUse" class="svga-on-canvas-eyesiris-gradient-right-7"><stop id="SvgjsStop7965" stop-opacity="1" stop-color="#fff" offset="0"/><stop id="SvgjsStop7966" stop-opacity="0" stop-color="#fff" offset="1"/></linearGradient><linearGradient id="SvgjsLinearGradient7990" x1="127.637" y1="79.822" x2="125.91" y2="81.88" gradientTransform="matrix(1 0 0 1 -50 0)" gradientUnits="userSpaceOnUse" class="svga-on-canvas-eyesiris-gradient-left-1"><stop id="SvgjsStop7991" stop-opacity="1" stop-color="#fff" offset="0"/><stop id="SvgjsStop7992" stop-opacity="0" stop-color="#fff" offset="1"/></linearGradient><linearGradient id="SvgjsLinearGradient7995" x1="129.637" y1="79.823" x2="127.91" y2="81.881" gradientUnits="userSpaceOnUse" class="svga-on-canvas-eyesiris-gradient-right-1"><stop id="SvgjsStop7996" stop-opacity="1" stop-color="#fff" offset="0"/><stop id="SvgjsStop7997" stop-opacity="0" stop-color="#fff" offset="1"/></linearGradient><linearGradient id="SvgjsLinearGradient8005" x1="132" y1="78" x2="126" y2="84" gradientTransform="matrix(1 0 0 1 -50 0)" gradientUnits="userSpaceOnUse" class="svga-on-canvas-eyesiris-gradient-left-6"><stop id="SvgjsStop8006" stop-opacity="1" stop-color="#fff" offset="0"/><stop id="SvgjsStop8007" stop-opacity="0" stop-color="#fff" offset="1"/></linearGradient><linearGradient id="SvgjsLinearGradient8015" x1="132" y1="78" x2="126" y2="84" gradientUnits="userSpaceOnUse" class="svga-on-canvas-eyesiris-gradient-right-6"><stop id="SvgjsStop8016" stop-opacity="1" stop-color="#fff" offset="0"/><stop id="SvgjsStop8017" stop-opacity="0" stop-color="#fff" offset="1"/></linearGradient><linearGradient id="SvgjsLinearGradient8160" x1="100" y1="172" x2="100" y2="122" gradientUnits="userSpaceOnUse" class="svga-on-canvas-chinshadow-gradient-single-0"><stop id="SvgjsStop8161" stop-opacity=".8" stop-color="#e1ac8f" offset="0"/><stop id="SvgjsStop8162" stop-opacity="1" stop-color="#c27b55" offset=".7"/></linearGradient><linearGradient id="SvgjsLinearGradient8204" x1="100" y1="142" x2="100" y2="139" gradientUnits="userSpaceOnUse" class="svga-on-canvas-mouth-gradient-single-0"><stop id="SvgjsStop8205" stop-opacity="1" stop-color="#e8b9a0" offset=".1"/><stop id="SvgjsStop8206" stop-opacity="1" stop-color="#e1ac8f" offset="1"/></linearGradient></defs><g id="svga-group-wrapper"><g id="svga-group-backs-single"><path id="SvgjsPath7821" d="M225 225H-25V-25h250V225z" fill="#ecf0f1" stroke-width="none" opacity="1"/></g><g id="svga-group-humanwrap-move" transform="matrix(1,0,0,1,0,0)"><g id="svga-group-humanwrap" transform="matrix(1,0,0,1,0,0)"><g id="svga-group-hair-back-move" transform="matrix(1,0,0,1,0,0)"><g id="svga-group-hair-back" transform="matrix(1,0,0,1,0,0)"><path id="SvgjsPath8045" d="M100.5 100.5h-1v-1h1v1z" fill="#2a232b" stroke-width="none" opacity="1"/></g></g><g id="svga-group-humanbody-single"><path id="SvgjsPath7841" d="M195.417 199.778c-2.196-4.746-8.195-11.779-14.86-13.722-8.239-2.403-26.837-5.308-33.733-6.923-5.528-1.296-16.662-11.294-20.564-14.65-.7-.6-1.273-1.839-1.287-2.76-.139-10.864 4.195-39.724 4.195-39.724H1e2 70.833c0 0 4.334 28.859 4.193 39.724-.011.921-.587 2.16-1.285 2.76-3.902 3.356-15.036 13.354-20.564 14.65-6.897 1.615-25.495 4.619-33.733 7.022-6.667 1.942-12.664 8.876-14.86 13.622-3.708 8.008-4.584 22.5-4.584 35h1e2 1e2C2e2 222.278 199.123 207.786 195.417 199.778z" fill="#f0c7b1" stroke-width="none" opacity="1" stroke="none"/><path id="SvgjsPath7842" d="M159.156 184.058c24.342 3.542 34.586 8.708 37.794 50.721H2e2c0-12.5-.877-26.992-4.583-35-2.196-4.746-8.195-11.779-14.86-13.722-8.239-2.403-26.837-5.308-33.733-6.923-5.528-1.296-18.242-12.069-21.643-16.35 3.36 4.704 12.791 15.605 21.054 18.46C150.188 182.61 153.48 183.232 159.156 184.058zM53.766 181.244c8.263-2.854 17.693-13.756 21.054-18.46-3.4 4.28-16.114 15.054-21.643 16.35-6.896 1.615-25.494 4.619-33.733 7.022-6.665 1.942-12.664 8.876-14.86 13.622-3.706 8.008-4.583 22.5-4.583 35h3.05c3.188-41.744 13.475-47.183 37.794-50.721C46.52 183.232 49.813 182.61 53.766 181.244z" fill="#ffe4d6" stroke-width="none" opacity="1" stroke="none"/><path id="SvgjsPath7843" d="M95.646 197.62c0 0-5.074-1.609-7.083-2.379-10.449-4.009-44.395-6.607-44.395-6.607s35.754 1.419 43.644 2.779c-.458-4.767-3.017-20.004-3.017-20.004s5.149 16.815 6.409 21.057C91.878 194.734 95.646 197.62 95.646 197.62zM106.445 196.278c-.089.073-.191.168-.302.268C106.256 196.461 106.358 196.372 106.445 196.278zM95.646 197.62c0 0 2.893 2.992 4.347 3.03 1.91.051 4.828-2.899 6.151-4.104-1.265.957-4.159 1.391-5.31 1.436C99.504 198.033 95.646 197.62 95.646 197.62zM116.664 190.101c-1.545.248-4.386.789-4.386.789l2.287-14.89c-.646 3.071-4.474 16.211-8.12 20.278 1.91-1.616 6.158-2.391 8.324-2.704 10.236-1.484 10.232-1.483 41.062-4.94C155.831 188.634 126.76 188.479 116.664 190.101z" fill="#e1ac8f" stroke-width="none" opacity="1" stroke="none"/><path id="SvgjsPath7844" d="M195.417 199.778c-2.196-4.746-8.195-11.779-14.86-13.722-8.239-2.403-26.837-5.308-33.733-6.923-5.528-1.296-16.662-11.294-20.564-14.65-.7-.6-1.273-1.839-1.287-2.76-.139-10.864 4.195-39.724 4.195-39.724H1e2 70.833c0 0 4.334 28.859 4.193 39.724-.011.921-.587 2.16-1.285 2.76-3.902 3.356-15.036 13.354-20.564 14.65-6.897 1.615-25.495 4.619-33.733 7.022-6.667 1.942-12.664 8.876-14.86 13.622-3.708 8.008-4.584 22.5-4.584 35h1e2 1e2C2e2 222.278 199.123 207.786 195.417 199.778z" fill="none" stroke="#c27b55" stroke-width="1.5" opacity="1"/></g><g id="svga-group-chinshadow-single"><path id="SvgjsPath8159" d="M75.517 163.052c6.979 4.54 16.307 8.814 24.485 8.814 7.828.0 17.345-4.309 24.458-8.869-.145-.428-.233-.862-.239-1.264-.126-9.877 3.345-34.021 4.076-38.983H71.703c.73 4.963 4.202 29.106 4.074 38.982C75.772 162.146 75.676 162.603 75.517 163.052z" fill="url(#SvgjsLinearGradient8160)" opacity="1"/></g><g id="svga-group-clothes-single"><path id="SvgjsPath8209" d="M151.119 179.24c-1.169 17.511.778 37.348.778 37.348-8.557-3.703-24.938-17.078-29.373-18.164-4.474 2.39-7.042 2.32-8.15 2.601-6.551 1.097-16.591 2.793-24.333-1.148-2.057.038-4.301.78-6.503 2.433-14.313 10.724-24.088 11.687-31.542 16.842 1.802-30.226-1.067-29.88-1.743-40.21-1.313-.494-1.503-.686-2.198-1.931-11.285 3.505-33.28 6.635-44.27 17.565-9.797 9.743-12.963 25.098-11.355 39.018 60.296-.651 154.574-1.435 215.17-.838C208.484 188.103 184.687 187.925 151.119 179.24z" fill="#000" stroke-width="none" opacity="1" stroke="none"/><path id="SvgjsPath8210" d="M122.058 200.77c-2.26-.563-4.039-.075-5.735-.076 1.416-.26 3.443-.796 6.202-2.27 3.903.958 20.003 13.108 28.935 18.133C141.348 213.958 130.793 203.448 122.058 200.77zM93.658 201.305c-1.216-.361-2.424-.823-3.617-1.429-2.057.038-4.301.78-6.503 2.433-11.353 8.505-23.97 13.47-30.718 16.655C86.366 209.735 80.769 201.455 93.658 201.305z" fill="#000" stroke-width="none" opacity="1" stroke="none"/><path id="SvgjsPath8211" d="M49.185 177.937c-35.389 10.12-53.816 14.299-56.599 55.654-.052.001-.105.002-.158.002-.609-5.283-.528-10.772.34-16.083 1.416-8.686 4.938-16.889 11.016-22.935 10.99-10.931 32.985-14.061 44.27-17.565C48.092 177.08 49.149 177.871 49.185 177.937zM151.119 179.24c-.009.138-.216.975-.224 1.111 27.9 8.159 54.292 10.078 56.23 52.399.155.001.317.003.473.004C208.484 188.103 182.822 184.752 151.119 179.24z" fill="#0f0f0f" stroke-width="none" opacity="1" stroke="none"/><path id="SvgjsPath8212" d="M208.188 233.074c0 0-30.844.408-51.32.528-13.87.089-27.734.164-41.604.223-89.418.32-93.853-.081-123.482-.081.0.0-.512-2.865-.628-5.683-1.741-42.366 33.358-44.661 56.99-51.536.296-.086.613.04.769.306.404.69 1.153 1.216 1.216 1.248.01.362.032.714.055 1.078-.876-.331-1.002-.491-1.999-1.523-.093-.1-.197-.18-.322-.136-2.094.759-4.597 1.094-6.8 1.789 4.908 7.375 4.512 8.756 11.027 16.468.009.097.075 1.446.087 2.015-6.347-6.477-7.729-10.213-12.204-18.152-18.695 5.934-36.75 6.94-45.03 29.829-2.725 7.542-3.244 16.485-2.368 24.214 65.178-.707 149.228-1.39 214.963-.839-.768-42.858-23.644-46.791-47.574-51.378-1.633 4.021-5.957 9.634-8.979 12.803-.022-.649-.043-1.313-.055-1.962 1.651-2.145 6.289-8.719 7.391-11.192-2.355-.663-4.701-.836-7.045-1.528.0-.312.0-.606.0-.905C203.73 184.932 208.188 199.237 208.188 233.074zM122.621 198.697c-.242-.101-.483-.165-.728-.197-2.59.632-3.484 1.342-7.833 2.2-3.443.681-12.983 2.123-20.4.233.039.108.0.0.0.0-1.128-.623-2.23-.805-3.57-.773C98.597 204.991 116.228 201.534 122.621 198.697zM134.848 206.507c-.298-.211-.584-.419-.869-.641-19.135 9.753-37.45 9.533-56.787 5.223-1.223-.318-2.434-.674-3.635-1.047-.374.198-.759.398-1.157.571C92.217 218.667 116.646 217.646 134.848 206.507z" fill="#000" stroke-width="none" opacity="1" stroke="none"/><path id="SvgjsPath8213" d="M52.045 219.328c1.863-31.071-2.873-33.865-1.708-46.65 3.715-2.175 7.4-2.84 9.259-5.004 8.871-10.374 7.834-14.805 13.599-17.518 1.146 4.797 1.841 16.058 1.848 16.205 4.352 12.899 7.315 18.411 10.881 23.596 2.071 3.004 6.493 7.614 7.551 10.751-2.126-1.067-5.81-1.07-9.892 1.774-6.618 4.571-4.228 5.659-18.017 10.661C60.675 214.903 56.454 217.294 52.045 219.328zM150.818 192.144c-.004-.317.354-16.318.396-17.648-7.095-2.599-14.646-22.281-24.338-23.615-2.861 17.897.537 11.463-7.986 33.135-2.105 5.354-2.9 7.377-3.289 16.253.218-.057.595-.158.614-.158v0c2.938-.774 3.918-1.239 5.703-1.721.912.188 2.43.969 2.712 1.193l-.008-.012c8.231 4.395 15.909 12.32 27.32 17.195C152.173 212.465 150.818 201.795 150.818 192.144z" fill="#fff" stroke-width="none" opacity="1"/><path id="SvgjsPath8214" d="M117.407 199.781c-.363.104-.75.211-1.192.328-.02.0-.396.102-.614.158.389-8.876 1.184-10.899 3.289-16.253 8.523-21.672 5.125-15.237 7.986-33.135 1.941.266 3.798 1.415 5.582 3.085-1.227 9.5-3.84 17-7.646 25.567 4.461-2.522 9.298-5.611 13.672-8.026C129.391 179.69 120.304 187.877 117.407 199.781zM93.475 200.708c-1.059-3.137-5.48-7.747-7.551-10.751-3.566-5.185-6.529-10.696-10.881-23.596-.007-.147-.702-11.408-1.848-16.205-3.646 1.714-3.34 2.955-5.771 7.11 1.958 10.127 5.915 16.565 11.527 24.985-4.784-3.154-11.462-8.545-18.071-11.847 11.134 8.348 19.139 19.045 26.653 30.108C89.972 199.77 92.066 200.003 93.475 200.708z" fill="#dedbd4" stroke-width="none" opacity="1"/><path id="SvgjsPath8215" d="M86.015 189.896c-5.437-7.907-7.91-15.09-10.862-23.54.0.0-.482-11.635-1.662-16.356-5.941 2.726-5.056 6.065-13.979 16.499-2.523 2.937-5.948 4.17-9.286 6.17-.856 9.399 1.783 16.584 1.95 25.104.238 6.276.213 14.08-.253 21.732 4.45-2.042 8.725-4.477 13.68-6.258 13.805-5.006 11.434-6.111 18.043-10.674 4.265-2.973 8.018-2.779 10.014-1.64C92.757 197.76 88.146 192.987 86.015 189.896zM70.813 209.965c-8.755 3.447-6.354 1.844-18.373 8.736 3.358-23.819-1.74-34.836-1.74-45.571 3.458-1.789 6.78-2.763 9.33-5.682 9.546-10.978 7.557-13.666 12.843-16.896.331 3.15.595 6.323.761 9.506.563 11.263-.939 3.57 3.492 15.177 6.549 17.153 12.799 18.935 15.762 24.862C84.479 196.433 78.493 207.405 70.813 209.965zM150.93 192.142c-.006-.438.389-17.628.397-17.721-7.108-2.46-15.008-22.473-24.872-23.66-.834 5.126-1.819 16.224-1.819 16.224-6.725 22.526-8.516 18.624-9.153 33.432.003.0.713-.197.76-.2 2.804-.74 3.87-1.207 5.651-1.716.281.055.739.195 1.013.316.038.02 1.7.839 1.664.851 8.283 4.426 15.938 12.374 27.474 17.26C152.314 212.718 150.93 201.899 150.93 192.142zM144.088 211.398c-7.721-4.629-13.066-10.239-21.258-13.583-2.219-.936-5.073.968-7.025 2.402 1.077-9.418.707-7.281 2.708-12.69 9.219-25.037 6.64-10.866 8.801-36.229 8.454 2.822 16.191 20.952 23.12 23.187-2.226 26.343.761 35.685 1.113 41.66C148.972 214.759 146.59 212.896 144.088 211.398z" fill="#afa9a0" stroke-width="none" opacity="1"/></g><g id="svga-group-head" transform="matrix(1,0,0,1,0,0)"><g id="svga-group-ears-left-move" transform="matrix(1,0,0,1,0,0)"><g id="svga-group-ears-left" transform="matrix(1,0,0,1,0,0)"><path id="SvgjsPath7979" d="M45.671 84.344c-1.485-2.462-6.327-9.199-10.031-8.254-3.012.772-2.973 4.971-3.206 7.455-.34 3.644-.464 9.992.525 12.568.951 2.473 3.96 7.252 5.828 9.075 2.299 2.235 5.97 9.358 6.422 10.097.711 1.168 2.137 2.84 4.325 2.708 3.071-.185 5.724-3.087 5.965-4.485C56.8 105.918 49.536 90.75 45.671 84.344z" fill="#f0c7b1" stroke="#c27b55" stroke-width="1.5" opacity="1"/><path id="SvgjsPath7980" d="M44.2 99.341c-.143-.563.007-1.513.154-2.429.133-.835.258-1.624.182-2.182-.289-2.09-1.915-6.06-2.976-8.212-1.223-2.476-3.199-5.595-5.679-6.399-1.024-.333-1.699.065-2.089.468-.288.296-.353.645-.259.687.095.041.307-.248.617-.519.254-.222-.508-.04.0.0-.205 1.04-.865 6.302-.41 10.143.358 3.022 1.05 5.279 1.263 5.617.031.356.083.705.16 1.043 1.002 4.41 7.518 10.177 9.034 11.82.28.303.574.483.646.409s-.101-.373-.379-.678c-1.498-1.632-7.971-7.381-8.939-11.635-1.027-4.514 3.912-11.207 4.699-12.623.401.665.742 1.303 1.004 1.835.207.417.434.906.67 1.435-.463.738-5.118 6.127-3.934 10.441.438 1.591 3.822 3.642 5.131 4.203.72.31.99.772 1.304 1.306.364.624.033 2.229 1.23 2.739.244.104.464.146.659.146.338.0.594-.13.783-.284.02.271.019.619.009.941-.012.418.047.609.148.617.103.009.21-.174.223-.587.017-.51.014-1.141-.077-1.444-.269-.889-1.088-1.894-1.957-2.957C44.563 102.197 44.422 100.213 44.2 99.341zM34.969 95.432c-2.348-6.923 1.283-13.229 1.81-14.179 1.012.399 2.562 2.193 3.221 3.235C39.52 85.321 35.067 90.775 34.969 95.432zM45.772 106.464c-1.084-.462-.706-1.984-1.056-2.584-.318-.542-.646-1.102-1.479-1.46-.18-.078-.379-.196-.583-.332-2.682-6.075.293-8.73 1.039-9.273.229.742.399 1.423.476 1.97.068.5-.059 1.298-.181 2.068-.153.955-.31 1.944-.147 2.584.244.953.411 2.97 1.291 4.048.781.956 1.583 1.942 1.857 2.746C46.871 106.391 46.5 106.775 45.772 106.464z" fill="#c27b55" stroke-width="none" opacity="1" stroke="none"/></g></g><g id="svga-group-ears-right-move" transform="matrix(1,0,0,1,0,0)"><g id="svga-group-ears-right" transform="matrix(1,0,0,1,0,0)"><path id="SvgjsPath7981" d="M154.066 84.344c1.486-2.462 6.328-9.199 10.031-8.254 3.012.772 2.973 4.971 3.207 7.455.34 3.644.463 9.992-.525 12.568-.951 2.473-3.961 7.252-5.828 9.075-2.299 2.235-5.971 9.358-6.422 10.097-.711 1.168-2.137 2.84-4.326 2.708-3.07-.185-5.723-3.087-5.965-4.485C142.938 105.918 150.203 90.75 154.066 84.344z" fill="#f0c7b1" stroke="#c27b55" stroke-width="1.5" opacity="1"/><path id="SvgjsPath7982" d="M154.322 103.243c-.869 1.063-1.688 2.068-1.957 2.957-.092.304-.094.935-.078 1.444.014.413.121.596.225.587.102-.008.16-.199.148-.617-.01-.322-.012-.67.008-.941.189.154.445.284.783.284.195.0.416-.042.66-.146 1.195-.511.865-2.116 1.229-2.739.314-.534.584-.997 1.305-1.306 1.309-.561 4.693-2.611 5.131-4.203 1.184-4.314-3.471-9.704-3.934-10.441.234-.529.463-1.018.668-1.435.264-.532.604-1.171 1.006-1.835.787 1.416 5.725 8.108 4.699 12.623-.969 4.254-7.441 10.003-8.939 11.635-.279.305-.453.604-.381.678.074.074.367-.106.646-.409 1.516-1.643 8.031-7.41 9.033-11.82.078-.338.131-.687.162-1.043.211-.337.904-2.594 1.262-5.617.455-3.841-.205-9.103-.41-10.143.508-.04-.254-.222.0.0.311.271.523.56.617.519.094-.042.029-.39-.258-.687-.391-.403-1.066-.801-2.09-.468-2.48.804-4.457 3.923-5.68 6.399-1.061 2.152-2.686 6.122-2.975 8.212-.076.558.049 1.347.182 2.182.146.916.297 1.866.154 2.429C155.316 100.213 155.176 102.197 154.322 103.243zM159.738 84.488c.66-1.042 2.209-2.835 3.221-3.235.527.95 4.158 7.256 1.811 14.179C164.672 90.775 160.219 85.321 159.738 84.488zM152.75 106.229c.273-.804 1.076-1.79 1.857-2.746.879-1.078 1.047-3.095 1.291-4.048.162-.64.006-1.629-.146-2.584-.123-.77-.25-1.568-.182-2.068.076-.547.246-1.228.475-1.97.746.543 3.721 3.199 1.039 9.273-.203.136-.402.254-.584.332-.832.358-1.16.918-1.479 1.46-.35.6.029 2.123-1.055 2.584C153.238 106.775 152.867 106.391 152.75 106.229z" fill="#c27b55" stroke-width="none" opacity="1" stroke="none"/></g></g><g id="svga-group-faceshape-wrap" transform="matrix(1,0,0,1,0,0)"><g id="svga-group-faceshape-single"><path id="SvgjsPath8156" d="M100.002.867C66.384.92 39.082 28.536 39.134 62.56c.009 5.403.704 10.643 2.002 15.634h.001c.012.054 8.341 20.48 10.463 33.205 2.38 14.276 10.462 30.232 16.302 35.786 6.052 5.756 20.281 14.682 32.099 14.682 11.267.0 26.046-8.926 32.099-14.682 5.84-5.554 13.922-21.51 16.302-35.786 2.122-12.725 10.452-33.151 10.463-33.205h.002c1.298-4.992 1.994-10.231 2.002-15.634C160.923 28.536 133.62.92 100.002.867z" fill="#f0c7b1" stroke-width="none" opacity="1"/><path id="SvgjsPath8157" d="M136.901 13.53c12.866 11.318 21.063 28.416 21.036 47.539-.009 5.403-.671 10.642-1.906 15.634h-.001c-.011.054-7.939 20.48-9.959 33.205-2.267 14.277-9.959 30.233-15.517 35.786-5.761 5.757-19.828 14.683-30.552 14.683-11.249.0-24.792-8.926-30.552-14.683-5.558-5.553-13.25-21.509-15.516-35.786-2.02-12.724-9.948-33.15-9.959-33.205h-.001c-1.236-4.992-1.898-10.231-1.906-15.634-.028-19.122 8.168-36.218 21.033-47.537C48.519 24.809 39.104 42.574 39.134 62.56c.009 5.403.704 10.643 2.002 15.634h.001c.012.054 8.341 20.48 10.463 33.205 2.38 14.276 10.462 30.232 16.302 35.786 6.052 5.756 20.281 14.682 32.099 14.682 11.267.0 26.046-8.926 32.099-14.682 5.84-5.554 13.922-21.51 16.302-35.786 2.122-12.725 10.452-33.151 10.463-33.205h.002c1.298-4.992 1.994-10.231 2.002-15.634C160.901 42.573 151.485 24.806 136.901 13.53z" fill="#e8b9a0" stroke-width="none" opacity="1"/><path id="SvgjsPath8158" d="M100.002.867C66.384.92 39.082 28.536 39.134 62.56c.009 5.403.704 10.643 2.002 15.634h.001c.012.054 8.341 20.48 10.463 33.205 2.38 14.276 10.462 30.232 16.302 35.786 6.052 5.756 20.281 14.682 32.099 14.682 11.267.0 26.046-8.926 32.099-14.682 5.84-5.554 13.922-21.51 16.302-35.786 2.122-12.725 10.452-33.151 10.463-33.205h.002c1.298-4.992 1.994-10.231 2.002-15.634C160.923 28.536 133.62.92 100.002.867z" fill="none" stroke="#c27b55" stroke-width="1.5" opacity="1"/></g></g><g id="svga-group-mouth-single-move" transform="matrix(1,0,0,1,0,0)"><g id="svga-group-mouth-single" transform="matrix(1,0,0,1,0,0)"><path id="SvgjsPath8203" d="M100.389 141.808c-3.458.0-4.907-2.678-4.907-2.678l9.74-.188C105.222 138.941 103.433 141.808 100.389 141.808z" fill="url(#SvgjsLinearGradient8204)" opacity="1"/><path id="SvgjsPath8207" d="M98.82 139.206c-1.781.0-3.136-.171-3.231-.184-.146-.02-.248-.146-.228-.282.02-.138.157-.227.301-.214.04.006 6.084.5 9.357-.195.156-.03.289.057.321.189.031.135-.06.269-.202.299C103.729 139.118 100.096 139.206 98.82 139.206zM84.391 133.824c-.365-.663 4.097.111 6.79-.551 2.98-.732 6.101.208 9.133.479 2.382.213 4.838-.975 7.191-.436 3.261.747 8.236-.196 7.843.594-.273.548-4.893 1.05-7.524.604-2.301-.39-4.683.556-7.006.73-2.885.217-5.767-1.385-8.614-.933C88.922 134.832 84.701 134.388 84.391 133.824z" fill="#c27b55" stroke-width="none" opacity="1"/></g></g><g id="svga-group-eyes-left-move" transform="matrix(1,0,0,1,0,0)"><g id="svga-group-eyes-left" transform="matrix(1,0,0,1,0,0)"><g id="svga-group-eyesback-left"><path id="SvgjsPath7867" d="M61.752 82.523c-.506-2.285 5.191-3.973 12.711-3.051 7.518.923 12.738 5.524 12.052 7.844-.38 1.286-10.639 3.245-14.253 2.847C68.598 89.758 62.974 88.04 61.752 82.523z" fill="url(#SvgjsRadialGradient7868)" opacity="1"/></g><g id="svga-group-eyesiriswrapper-left" transform="matrix(1,0,0,1,0.25,0.25)"><g id="svga-group-eyesiriscontrol-left" transform="matrix(1,0,0,1,0,0)"><g id="svga-group-eyesiris-left" transform="matrix(1,0,0,1,0,0)"><path id="SvgjsPath7998" d="M79.788 85.588c-.869 3.192-4.16 5.073-7.358 4.196-3.195-.876-5.083-4.178-4.212-7.371.868-3.195 4.167-5.076 7.362-4.198C78.773 79.09 80.658 82.392 79.788 85.588z" fill="#050507" stroke="#000" stroke-width=".5" opacity="1"/><path id="SvgjsPath7999" d="M73.265 80.413l-.156-.279c-.548.218-1.076.445-1.575.687l.37.894-.047.517-1.426-.839c-.466.259-.898.529-1.318.804l.004.009-.489.55.781.799-1.052.574.398.657 1.857.185-1.741 1.181 1.863-.103-.982 1.693 2.297-1.39-.618 2.364 1.329-2.184.256 2.343.384-2.072.353-.043.5 2.35.152-.705c.201-.052.718.704.915.651L74.736 86.5l1.282 2.556-.52-2.651 1.578 2.05c.057-.018.196-.85.252-.867l-.982-1.469 1.785.539-1.071-1.16-.86-.712 3.586.803-1.997-1.217 1.411-.577-3.055-.309 3.021-1.602-2.734.698-.736-.399-.181-.354.052-.846.061-1.389-1.248 2.198-.11-1.609-.157-.421c-.25.087-.495.172-.736.265L73.265 80.413z" fill="#121216" stroke-width="none" opacity="1" stroke="none"/><path id="SvgjsPath8000" d="M79.856 82.755c-5.242.239-7.907 1.36-11.707 2.631-.732-3.229 1.298-6.438 4.53-7.164S79.125 79.525 79.856 82.755z" fill="#000" stroke-width="none" opacity=".9" stroke="none"/><path id="SvgjsPath8001" d="M74.869 81.998c-1.319-.378-2.666.375-3.005 1.69-.342 1.308.452 2.678 1.771 3.056 1.32.379 2.667-.375 3.009-1.684C76.987 83.745 76.19 82.376 74.869 81.998z" fill="#000" stroke-width="none" opacity=".8"/><path id="SvgjsPath8002" d="M74.869 81.998c-1.319-.378-2.666.375-3.005 1.69-.342 1.308.452 2.678 1.771 3.056 1.32.379 2.667-.375 3.009-1.684C76.987 83.745 76.19 82.376 74.869 81.998z" fill="none" stroke="#000" stroke-width=".75" opacity="1"/><path id="SvgjsPath8003" d="M69.631 87.56c.613.973 1.426 1.706 2.578 1.95 1.326.281 1.477-1.483.528-1.685-.72-.152-1.176-.505-1.552-1.102C70.497 85.63 69.079 86.684 69.631 87.56v0z" fill="#fff" stroke-width="none" opacity=".4"/><path id="SvgjsPath8004" d="M75.033 81.493c.929.187 1.469.768 1.938 1.64.862 1.604 3.299.178 2.437-1.425-.757-1.408-2.019-2.613-3.625-2.938C73.726 78.355 73.438 81.171 75.033 81.493v0z" fill="url(#SvgjsLinearGradient8005)" opacity="1"/></g></g></g><g id="svga-group-eyesfront-left"><path id="SvgjsPath7889" d="M53.294 83c.809 10.899 11.637 23.583 20.506 22.236 10.498.106 20.864-7.868 20.864-22.305s-5.087-26.528-21.127-26.528C62.037 56.402 53.294 68.563 53.294 83zM61.752 82.523c-.506-2.285 5.191-3.973 12.711-3.051 7.518.923 12.738 5.524 12.052 7.844-.38 1.286-10.639 3.245-14.253 2.847C68.598 89.758 62.974 88.04 61.752 82.523z" fill="#f0c7b1" stroke-width="none" opacity="1" stroke="none"/><path id="SvgjsPath7890" d="M72.262 90.163c3.614.398 13.873-1.561 14.253-2.847.687-2.32-4.534-6.921-12.052-7.844C68.003 78.68 62.9 79.816 61.907 81.6c.898-6.4 7.7-11.397 15.987-11.434 8.911-.037 16.148 5.676 16.172 12.765.021 7.088-7.185 12.862-16.095 12.902-8.913.037-16.149-5.676-16.173-12.764.0-.105.016-.208.019-.313C63.147 88.083 68.651 89.764 72.262 90.163z" fill="url(#SvgjsRadialGradient7891)" opacity="1"/><path id="SvgjsPath7895" d="M61.752 82.523c-.506-2.285 5.191-3.973 12.711-3.051 7.518.923 12.738 5.524 12.052 7.844-.38 1.286-10.639 3.245-14.253 2.847C68.598 89.758 62.974 88.04 61.752 82.523z" fill="url(#SvgjsRadialGradient7896)" opacity="1"/><path id="SvgjsPath7899" d="M62.148 77.417c4.208-1.978 9.35-2.16 13.838-1.005 2.404.561 4.965 1.285 7.063 2.638 1.945 1.135 3.525 2.5 5.002 4.19-1.342-1.701-2.773-3.118-4.623-4.27-2.276-1.416-4.769-2.294-7.364-2.916C71.478 74.928 66.342 75.184 62.148 77.417z" fill="#c27b55" stroke-width="none" opacity="1" stroke="none"/><path id="SvgjsPath7900" d="M62.769 78.02c.88-.352 4.065-1 5.456-1.066 1.687-.082 5.073.125 6.735.424 3.374.608 9.251 2.483 11.678 7.184.746 1.445.074 2.456-.123 2.675.3-2.426-4.838-6.746-12.052-7.604-7.52-.894-13.217.743-12.711 2.958 1.222 5.348 6.846 7.013 10.51 7.405 4.099.439 11.684-1.539 12.686-1.753-1.999 1.009-7.524 2.095-9.767 2.303-.744.07-2.24.104-2.986.085-5.949-.158-10.169-3.175-11.729-7.26C59.464 80.745 60.56 78.902 62.769 78.02z" fill="#000" stroke-width="none" opacity="1" stroke="none"/></g></g></g><g id="svga-group-eyes-right-move" transform="matrix(1,0,0,1,0,0)"><g id="svga-group-eyes-right" transform="matrix(1,0,0,1,0,0)"><g id="svga-group-eyesback-right"><path id="SvgjsPath7874" d="M137.849 82.523c.506-2.285-5.191-3.973-12.711-3.051-7.518.923-12.738 5.524-12.052 7.844.38 1.286 10.639 3.245 14.253 2.847C131.003 89.758 136.627 88.04 137.849 82.523z" fill="url(#SvgjsRadialGradient7875)" opacity="1"/></g><g id="svga-group-eyesiriswrapper-right" transform="matrix(1,0,0,1,-0.25,0.25)"><g id="svga-group-eyesiriscontrol-right" transform="matrix(1,0,0,1,0,0)"><g id="svga-group-eyesiris-right" transform="matrix(1,0,0,1,0,0)"><path id="SvgjsPath8008" d="M131.788 85.587c-.869 3.193-4.16 5.074-7.358 4.196-3.195-.876-5.082-4.178-4.212-7.371.867-3.195 4.167-5.076 7.361-4.198C130.774 79.091 132.658 82.393 131.788 85.587z" fill="#050507" stroke="#000" stroke-width=".5" opacity="1"/><path id="SvgjsPath8009" d="M125.266 80.413l-.155-.278c-.548.217-1.076.445-1.576.686l.37.894-.047.517-1.426-.839c-.467.259-.898.529-1.317.804l.004.009-.49.551.782.799-1.052.573.397.657 1.857.185-1.741 1.181 1.863-.103-.982 1.692 2.296-1.39-.616 2.364 1.328-2.184.257 2.343.384-2.073.353-.043.501 2.35.151-.704c.201-.052.719.703.915.651l-.585-2.556 1.283 2.556-.521-2.651 1.577 2.05c.057-.018.197-.85.253-.867l-.982-1.469 1.786.538-1.071-1.16-.859-.712 3.586.802-1.997-1.216 1.411-.577-3.054-.308 3.021-1.603-2.734.698-.736-.399-.18-.354.052-.847.061-1.388-1.247 2.198-.11-1.609-.156-.422c-.25.087-.495.173-.735.265L125.266 80.413z" fill="#121216" stroke-width="none" opacity="1" stroke="none"/><path id="SvgjsPath8010" d="M131.855 82.755c-5.24.239-7.906 1.36-11.706 2.631-.731-3.229 1.298-6.438 4.53-7.164C127.911 77.495 131.126 79.525 131.855 82.755z" fill="#000" stroke-width="none" opacity=".9" stroke="none"/><path id="SvgjsPath8011" d="M126.87 81.998c-1.319-.378-2.666.376-3.005 1.69-.343 1.308.451 2.678 1.77 3.056 1.322.379 2.668-.375 3.009-1.684C128.987 83.745 128.189 82.376 126.87 81.998z" fill="#000" stroke-width="none" opacity=".8"/><path id="SvgjsPath8012" d="M126.87 81.998c-1.319-.378-2.666.376-3.005 1.69-.343 1.308.451 2.678 1.77 3.056 1.322.379 2.668-.375 3.009-1.684C128.987 83.745 128.189 82.376 126.87 81.998z" fill="none" stroke="#000" stroke-width=".75" opacity="1"/><path id="SvgjsPath8013" d="M121.632 87.56c.612.973 1.426 1.706 2.577 1.95 1.326.281 1.478-1.482.528-1.685-.72-.152-1.177-.504-1.552-1.102C122.498 85.63 121.079 86.684 121.632 87.56v0z" fill="#fff" stroke-width="none" opacity=".4"/><path id="SvgjsPath8014" d="M127.034 81.493c.929.187 1.469.767 1.938 1.639.862 1.604 3.3.178 2.437-1.425-.757-1.408-2.018-2.613-3.625-2.938C125.727 78.355 125.438 81.171 127.034 81.493v0z" fill="url(#SvgjsLinearGradient8015)" opacity="1"/></g></g></g><g id="svga-group-eyesfront-right"><path id="SvgjsPath7909" d="M126.063 56.402c-16.04.0-21.127 12.091-21.127 26.528s10.366 22.412 20.864 22.305c8.869 1.347 19.697-11.337 20.506-22.236C146.307 68.563 137.563 56.402 126.063 56.402zM127.339 90.163c-3.614.398-13.873-1.561-14.253-2.847-.687-2.32 4.534-6.921 12.052-7.844 7.52-.922 13.217.767 12.711 3.051C136.627 88.04 131.003 89.758 127.339 90.163z" fill="#f0c7b1" stroke-width="none" opacity="1" stroke="none"/><path id="SvgjsPath7910" d="M127.339 90.163c-3.614.398-13.873-1.561-14.253-2.847-.687-2.32 4.534-6.921 12.052-7.844 6.46-.792 11.563.345 12.556 2.128-.898-6.4-7.7-11.397-15.987-11.434-8.911-.037-16.148 5.676-16.172 12.765-.021 7.088 7.185 12.862 16.095 12.902 8.913.037 16.149-5.676 16.173-12.764.0-.105-.016-.208-.019-.313C136.453 88.083 130.949 89.764 127.339 90.163z" fill="url(#SvgjsRadialGradient7911)" opacity="1"/><path id="SvgjsPath7915" d="M137.849 82.523c.506-2.285-5.191-3.973-12.711-3.051-7.518.923-12.738 5.524-12.052 7.844.38 1.286 10.639 3.245 14.253 2.847C131.003 89.758 136.627 88.04 137.849 82.523z" fill="url(#SvgjsRadialGradient7916)" opacity="1"/><path id="SvgjsPath7919" d="M137.452 77.417c-4.208-1.978-9.35-2.16-13.838-1.005-2.404.561-4.965 1.285-7.063 2.638-1.945 1.135-3.525 2.5-5.002 4.19 1.342-1.701 2.773-3.118 4.623-4.27 2.276-1.416 4.769-2.294 7.364-2.916C128.123 74.928 133.259 75.184 137.452 77.417z" fill="#c27b55" stroke-width="none" opacity="1" stroke="none"/><path id="SvgjsPath7920" d="M136.832 78.02c-.88-.352-4.065-1-5.456-1.066-1.687-.082-5.073.125-6.735.424-3.374.608-9.251 2.483-11.678 7.184-.746 1.445-.074 2.456.123 2.675-.3-2.426 4.838-6.746 12.052-7.604 7.52-.894 13.217.743 12.711 2.958-1.222 5.348-6.846 7.013-10.51 7.405-4.099.439-11.684-1.539-12.686-1.753 1.999 1.009 7.524 2.095 9.767 2.303.744.07 2.24.104 2.986.085 5.949-.158 10.169-3.175 11.729-7.26C140.137 80.745 139.041 78.902 136.832 78.02z" fill="#000" stroke-width="none" opacity="1" stroke="none"/></g></g></g><g id="svga-group-facehighlight-single"><path id="SvgjsPath7833" d="M141 113.974c.035 22.622-18.292 40.994-40.938 41.025-22.642.037-41.028-18.273-41.063-40.9-.035-22.62 18.292-41.064 40.937-41.1C122.579 72.964 140.967 91.349 141 113.974z" fill="url(#SvgjsRadialGradient7834)" opacity="1"/><path id="SvgjsPath7837" d="M137.5 53.999c0 20.711-16.789 37.5-37.499 37.5-20.711.0-37.501-16.789-37.501-37.5s16.79-37.5 37.501-37.5C120.711 16.499 137.5 33.288 137.5 53.999z" fill="url(#SvgjsRadialGradient7838)" opacity="1"/></g><g id="svga-group-eyebrows-left-move" transform="matrix(1,0,0,1,0,0)"><g id="svga-group-eyebrows-left-rotate" transform="matrix(1,0,0,1,0,0)"><g id="svga-group-eyebrows-left" transform="matrix(1,0,0,1,0,0)"><path id="SvgjsPath7967" d="M54 74.189c9.954-9.974 16.761-5.915 30.589-3.264.845.162 6.32 1.539 5.31 3.469-.483.924-2.036.814-2.903.798C73.308 74.936 66.652 65.197 54 74.189z" fill="#2a232b" stroke-width="none" opacity="1"/></g></g></g><g id="svga-group-eyebrows-right-move" transform="matrix(1,0,0,1,0,0)"><g id="svga-group-eyebrows-right-rotate" transform="matrix(1,0,0,1,0,0)"><g id="svga-group-eyebrows-right" transform="matrix(1,0,0,1,0,0)"><path id="SvgjsPath7968" d="M146 74.189c-9.953-9.974-16.761-5.915-30.589-3.264-.846.162-6.32 1.539-5.311 3.469.483.924 2.036.814 2.903.798C126.691 74.936 133.348 65.197 146 74.189z" fill="#2a232b" stroke-width="none" opacity="1"/></g></g></g><g id="svga-group-nose-single-move" transform="matrix(1,0,0,1,0,0)"><g id="svga-group-nose-single" transform="matrix(1,0,0,1,0,0)"><path id="SvgjsPath7976" d="M91.115 115.499c-.878 2.064 5.934 4.292 8.519 4.429 2.8.147 10.646-2.9 9.316-4.992-1.399-2.195-6.643-.286-8.906-.286C97.792 114.649 92.291 112.745 91.115 115.499z" fill="#e1ac8f" stroke-width="none" opacity="1" stroke="none"/><path id="SvgjsPath7977" d="M101.857 117.058c-.23-.759 1.876-1.584 2.657-1.694 1.101-.16 3.36.802 3.158 1.592-.184.698-2.148-.533-2.86-.429C104.078 116.634 102.075 117.769 101.857 117.058zM94.974 116.811c.968.0 2.404.623 2.668.074.315-.655-2.139-1.461-2.86-1.372-.596.07-2.733 1.315-2.439 1.839C92.617 117.833 93.698 116.811 94.974 116.811z" fill="#c27b55" stroke-width="none" opacity="1" stroke="none"/><path id="SvgjsPath7978" d="M100.089 111.999c.607.0 1.742-.74 1.792-2.23.201-6.008-.956-23.833-1.792-23.77-.78.059-2.267 17.637-1.948 23.77C98.22 111.271 99.404 111.999 100.089 111.999z" fill="#fff5ef" stroke-width="none" opacity=".2" stroke="none"/></g></g><g id="svga-group-beardwrap" transform="matrix(1,0,0,1,0,0)"><g id="svga-group-beard-single-move" transform="matrix(1,0,0,1,0,0)"><g id="svga-group-beard-single" transform="matrix(1,0,0,1,0,0)"><path id="SvgjsPath7851" d="M1e2 18.13v0 0 0z" fill="#2a232b" stroke-width="none" opacity="1"/></g></g></g><g id="svga-group-mustache-single-move" transform="matrix(1,0,0,1,0,0)"><g id="svga-group-mustache-single" transform="matrix(1,0,0,1,0,0)"><path id="SvgjsPath7849" d="M1e2 18.13v0 0 0z" fill="#2a232b" stroke-width="none" opacity="1"/></g></g><g id="svga-group-hair-front" transform="matrix(1,0,0,1,0,0)"><path id="SvgjsPath8047" d="M152.983 98.604c-4.563-12.435.717-31.506-8.205-45.615-4.064-6.762-7.597-11.409-6.95-19.276l-.368-.124c-.862 1.352-1.994 2.82-2.745 3.76.427-1.091 1.123-2.762 1.753-4.023l-.332-.218c-2.585 3.073-4.805 4.649-7.859 5.5 3.3-2.32 6.949-6.357 8.546-8.595l-.271-.284c-11.319 7.283-24.164 7.382-35.496 7.471-10.227.076-16.579-.155-23.953-4.441-5.321 1.764-9.511 1.539-14.116-1.635-14.414 27.947-8.01 13.957-16.627 65.764-5.004-6.67-6.458-10.912-7.642-17.267-.313-2.027-.619-5.154-.429-7.215l-.063-.065c-4.452-9.77-6.553-15.333-5.495-34.712.785-8.04 2.533-14.076 7.574-20.398-.665-3.435-.729-6.898-.277-10.21-2.64-4.827-4.457-9.795-5.165-11.57 3.688 2.823 3.993 2.986 7.07 3.957.704-1.937 1.73-3.861 2.387-4.865.297 2.238.533 3.75 1.203 5.925.228.055 1.313.349 1.66.442-.199-1.324-.381-1.938-.353-3.125.571 1.302 1.053 1.604 2.71 3.626 1.834.385 1.394.328 1.944.328-2.669-4.183-4.47-7.885-4.927-13.515 3.653 2.081 8.764 3.27 14.101 3.27 12.539.0 25.369-9.412 43.169-9.412 15.425.0 28.771 8.558 34.683 18.303-.006-2.514-.113-4.594.794-7.178.0.0.105 3.705.105 6.592l.396.037c.62-3.301 1.928-6.115 4.088-8.773-1.918 5.158-1.188 2.404-3.334 8.702l.348.187c1.431-1.839 2.603-3.139 6.019-4.862-2.468 2.473-4.355 3.89-5.522 5.639l.301.259c1.456-1.32 2.971-1.82 4.512-.613-2.481-.902-3.946.679-5.648 2.675 6.619 1.091 10.21 4.91 14.864 10.015 10.712 12.352 13.533 24.411 7.723 41.506 2.435 5.263 2.06 17.125-3.375 26.686C159.779 86.867 155.941 93.789 152.983 98.604z" fill="#2a232b" stroke-width="none" opacity="1"/><path id="SvgjsPath8048" d="M62.299 30.371c.359.334.718.668 1.074 1.004-.129-.085-.258-.164-.388-.253-14.414 27.947-8.01 13.957-16.627 65.764-5.004-6.67-6.458-10.912-7.642-17.267-.313-2.027-.619-5.154-.429-7.215l-.063-.065c-4.452-9.77-6.553-15.333-5.495-34.712.785-8.04 2.533-14.076 7.574-20.398-.654-3.378-.72-6.782-.293-10.044.597.874 1.223 1.725 1.863 2.565C42.304 12.374 42.669 14.933 42 17c-9.539 29.478-4 43 2 64-2.464-15.931-7.142-36.185 5.619-48C44.168 46.096 45.673 52.034 47 61 47.917 49.082 52.195 37.996 62.299 30.371zM155.432 13.06c-.376-.412-.742-.812-1.106-1.207-.382.255-.774.489-1.159.737 14.956 30.661.594 27.717 4.017 41.409C161.183 63.999 156 70 156 80c0-15-.681-25.439-8.96-37.175-2.796-3.963-3.581-17.423-5.465-24.074C118.373 33 84.002 35.981 47.916 7.183c17 6 51.649 1.35 63.543-6.316-13.558 2.461-41.862 2.608-54.59-2.631 30.5-2.37 30.131-12.16 56.131-14C100.5-20.431 73.196-8.51 60.658-8.51c-5.336.0-10.447-1.188-14.101-3.27.457 5.63 2.258 9.333 4.927 13.515-.551.0-.11.057-1.944-.328-1.658-2.022-2.14-2.325-2.71-3.626-.029 1.187.154 1.801.353 3.125-.347-.093-1.433-.387-1.66-.442-.67-2.175-.906-3.687-1.203-5.925-.656 1.004-1.683 2.928-2.387 4.865-3.078-.971-3.382-1.134-7.07-3.957.708 1.775 2.525 6.744 5.165 11.57-.007.055-.009.111-.016.166 6.305 9.235 15.169 16.471 23.363 24.192 4.454 2.924 8.558 3.096 13.729 1.382 7.374 4.286 13.727 4.517 23.953 4.441 11.332-.088 24.177-.188 35.496-7.471l.271.284c-1.597 2.238-5.246 6.275-8.546 8.595 3.055-.852 5.274-2.428 7.859-5.5l.332.218c-.63 1.262-1.326 2.932-1.753 4.023.751-.94 1.883-2.408 2.745-3.76l.368.124c-.646 7.868 2.886 12.514 6.95 19.276 8.922 14.109 3.643 33.181 8.205 45.615 2.958-4.815 6.796-11.736 6.796-17.352 5.435-9.561 5.81-21.423 3.375-26.686C168.965 37.471 166.144 25.412 155.432 13.06zM156.165 38.709c-.33-9.524-6.633-21.612-6.633-21.612-2.946-5.204-5.579-7.687-9.996-8.695 12.426.619 17.306 19.179 16.769 28.875C156.254 38.177 156.165 38.709 156.165 38.709zM127.907-1.507c3.283 2.663 4.067 3.423 7.296 7.909-16.653-29.889-49.333-7.27-59.667-8C86.041.573 109.793-14.79 127.907-1.507zM136.369 11.485C116.408 28.033 85.929 21.023 61 13.21 85.827 24.581 117.435 30.734 136.369 11.485zm-78.5 18c-6.539 3.425-9.616 12.05-9.9 17.75C49.19 42.316 52.854 33.291 57.869 29.485zm-8.25-4.75c-9.359 5.699-11.174 18.771-10.25 29.75C40.353 44.343 42.181 31.11 49.619 24.735zM117.064 12.34c-1.006.215-7.259 1.072-10.672 1.195-2.661.155-13.037.328-22.391-.048 9.655 2.069 15.454 2.454 22.496 2.045 8.106-.293 15.36-1.898 21.371-6.796C123.633 11.067 121.828 11.399 117.064 12.34zM150.609 38.885c0 0-.256-.441-.588-1.102-.911-1.527-1.945-5.681-5.938-18.736 2.966 24.195 7.817 19.782 9.991 32.283C154.075 46.834 153.761 44.529 150.609 38.885z" fill="#1b141c" stroke-width="none" opacity="1"/><path id="SvgjsPath8049" d="M157.853 68.131c.364-3.246.217-1.758.257-3.61.306-6.244-3.426-11.479-1.154-18.987 1.854-5.453 2.925-6.308 2.113-15.801-.119-1.37-.474-4.774-1.102-5.998.856 1.489 1.422 4.245 1.725 5.934 1.687 9.543.268 10.992-1.521 16.267C155.781 53.906 160.368 57.422 157.853 68.131zM141.575 18.751c1.117 30.37 7.276 23.316 12.717 41.752C150.598 38.757 147.181 56.786 141.575 18.751zM48.369 34.235c-9.19 11.563-8.262 19.899-6 37C42.165 53.925 40.055 47.355 48.369 34.235zM41.772 17.714c-5.274 16.319-6.429 23.684-3.897 41.285C37.406 41.353 37.518 37.458 41.772 17.714zm20.18 12.927C52.322 37.56 47.295 50.217 47 61 48.482 50.695 54.012 37.697 61.952 30.641zM128.855 24.594c-12.051 4.437-31.667 5.625-45.988 1.322C71.706 22.661 54.279 11.723 44.905 4.845c8.498 6.765 23.471 16.807 33.926 20.776 10.863 4.059 27.887 5.567 41.081 2.245 9.248-2.324 14.041-4.52 21.663-9.114C138.182 20.612 133.184 23.242 128.855 24.594zM102.813-11.594c12.167-2.285 26.509 5.558 34.057 14.83-7.897-11.318-20.837-16.949-28.562-17.083C95.629-14.067 82.513-3.204 56.869-2.265 80.982-1.203 92.573-9.936 102.813-11.594zM112.369 1.235c-17.289 6.143-30.64 7.613-48.807 8.58C82.325 10.97 95.739 9.15 112.369 1.235zm18.167 3.503c-10.662 5.027-15.33 5.851-37.337 7.191C106.996 12.486 119.885 11.769 130.536 4.738zM95.248 20.023c10.644 1.237 29.289-.105 38.621-9.788-11.27 9.494-32.119 9.154-48.38 8.508C91.713 19.714 90.59 19.552 95.248 20.023zM140.869 10.735c7.629 2.809 9.489 16.193 12.5 27C152.022 28.156 149.721 12.813 140.869 10.735z" fill="#3a353a" stroke-width="none" opacity="1"/><path id="SvgjsPath8050" d="M155.579 12.925c-4.348-4.769-8.252-8.97-14.63-10.02 2.094-2.463 3.566-3.379 6.25-1.85-1.59-1.871-3.417-2.226-5.63-.22 1.271-1.905 3.468-3.46 6.3-6.43-4.231 1.985-5.503 3.34-7.12 5.42 2.285-6.703 1.3-3.128 3.72-9.75-2.529 2.836-4.146 5.92-4.859 9.72.0-5.903-.185-5.14-.07-7.72-1.387 3.089-1.229 5.81-1.229 7.59-2.233-3.682-5.514-6.8-9.051-9.35-25.054-18.289-50.039-1.456-63.58.58-5.489.927-13.714.338-19.35-3.04.398 5.764 2.183 9.592 4.79 13.68-.001.0-1.47-.31-1.47-.31-2.019-2.434-2.214-2.356-2.96-4.33-.191 1.763.101 2.74.25 3.74-.498-.13-.957-.268-1.26-.34-.743-2.414-.958-4.25-1.23-6.29-.614.785-1.922 3.18-2.64 5.15-2.999-.948-3.214-1.099-7.43-4.33.5 1 2.309 6.461 5.44 12.23-.47 3.534-.328 7.06.27 10.12-5.025 6.312-6.77 12.346-7.56 20.44-1.041 19.059.867 24.611 5.53 34.82.01.01.01.03.02.04-.177 1.971.119 5.102.44 7.18 1.179 6.332 2.625 10.693 7.91 17.65.02.02.03.05.05.07 3.395-20.368 3.045-20.867 3.77-25.89 3.572-25.712 3.417-21.872 12.81-40.07 3.813 2.628 8.035 3.552 14.02 1.56 4.342 2.524 8.776 4.45 21.06 4.45 12.171-.152 26.176.412 38.52-7.53-1.87 2.622-6.118 7.154-9.46 9.18 3.479-.736 5.975-2.137 9.09-5.84-.957 1.915-2.083 4.814-2.17 5.16.15-.18 2.15-2.57 3.51-4.7-.653 7.945 2.894 12.597 6.98 19.4 8.956 14.163 3.511 33.521 8.33 45.96 3.09-4.996 7.04-12.086 7.04-17.75 5.21-9.086 5.956-21.111 3.39-26.75C168.587 38.924 167.533 26.708 155.579 12.925zM46.789-2.465c.488 1.389.595 1.359 2.49 3.61-.94-.195-1.565-.332-2.13-.46C46.93-.371 46.789-1.375 46.789-2.465zM44.279-5.125c.094 1.532.459 3.542.99 5.31-2.865-.737-1.8-.504-2.8-.8C43.292-3.089 43.602-3.715 44.279-5.125zM45.999 95.095c-4.216-7.605-5.323-10.191-6.49-17.89-.114-.886-.472-3.446-.49-4.67-6.07-13.88-8.352-40.236 1.21-54.74.0-.01.0-.01.0-.01s.399-.624 1.12-1.52c-.267-1.344-.531-4.18-.44-7.28.74 1.32 1.58 2.52 2.33 3.67.0-.003.59.781.59.8 4.551 5.79 8.754 10.604 18.92 17.75C50.544 50.979 51.301 44.3 45.999 95.095zM163.639 48.206c-.356 2.358-1.123 5.583-1.539 6.99 2.78 7.068-.257 20.417-3.061 26.38-1.226 7.093-2.545 8.521-6.01 15.59-2.477-11 2.583-30.519-6.76-45.08-6.059-10.044-8.657-11.36-7.23-23.77.0.0.061-.675.08-.85-12.628 7.721-26.576 8.594-44.97 8.2-5.317.0-12.5-.668-16.98-3.44-9.081 2.583-12.45-1.437-20.01-7.34-8.163-6.937-13.709-12.994-20.55-27.27 3.843 3.118 11.537 4.689 16.39 5.5-3.273-4.363-5.199-8.349-6.07-14 3.48 2.32 11.82 4.603 19.17 3.79 13.534-1.271 32.484-15.167 55.77-4.63 10.804 4.767 16.286 11.476 17.57 15 .01.0.02.01.04.01.06.02.12.03.189.04.017.018.332.09.36.09 6.976 2.325 7.443 2.759 14.2 10.64C158.026 18.715 167.168 28.016 163.639 48.206z" fill="#000" stroke-width="none" opacity="1"/></g><g id="svga-group-glasses-single-move" transform="matrix(1,0,0,1,0,0)"><g id="svga-group-glasses-single" transform="matrix(1,0,0,1,0,0)"><path id="SvgjsPath7969" d="M1e2 18.13v0 0 0z" fill="#26120b" stroke-width="none" opacity="1"/></g></g></g></g></g><path id="svga-credit-rect" d="M0 185h2e2v15H0z" fill="#ecf0f1" opacity=".5" style="display:none"/><text id="svga-credit-text" font-family="Avenir Next, Roboto, Helvetica, Arial, sans-serif" font-size="10" text-anchor="start" font-weight="400" size="10" anchor="start" weight="400" fill="#333" x="33.3125" y="182.3984375" style="display:none"><tspan id="SvgjsTspan7820" dy="13" x="33.3125">Created on AvatarMaker.com</tspan></text></g></svg>